HIERARCHY
ROOT pelvis
{
	OFFSET 0.003123 -0.351407 0.012037
	CHANNELS 6 Xposition Yposition Zposition Zrotation Yrotation Xrotation 
	JOINT left_hip
	{
		OFFSET 0.058189 -0.092763 -0.026001
		CHANNELS 3 Zrotation Yrotation Xrotation
		JOINT left_knee
		{
			OFFSET 0.054695 -0.378753 -0.009396
			CHANNELS 3 Zrotation Yrotation Xrotation
			JOINT left_ankle
			{
				OFFSET -0.043453 -0.403059 -0.031876
				CHANNELS 3 Zrotation Yrotation Xrotation
				JOINT left_foot
				{
					OFFSET 0.047257 -0.057997 0.118216
					CHANNELS 3 Zrotation Yrotation Xrotation
					End Site
					{
						OFFSET 0.000000 0.000000 0.000000
					}
				}
			}
		}
	}
	JOINT right_hip
	{
		OFFSET -0.063267 -0.103908 -0.021250
		CHANNELS 3 Zrotation Yrotation Xrotation
		JOINT right_knee
		{
			OFFSET -0.044210 -0.362380 -0.016824
			CHANNELS 3 Zrotation Yrotation Xrotation
			JOINT right_ankle
			{
				OFFSET 0.015417 -0.410728 -0.020192
				CHANNELS 3 Zrotation Yrotation Xrotation
				JOINT right_foot
				{
					OFFSET -0.038812 -0.058328 0.119049
					CHANNELS 3 Zrotation Yrotation Xrotation
					End Site
					{
						OFFSET 0.000000 0.000000 0.000000
					}
				}
			}
		}
	}
	JOINT spine_1
	{
		OFFSET -0.002763 0.109891 -0.027618
		CHANNELS 3 Zrotation Yrotation Xrotation
		JOINT spine_2
		{
			OFFSET 0.009448 0.131853 -0.005940
			CHANNELS 3 Zrotation Yrotation Xrotation
			JOINT spine_3
			{
				OFFSET -0.011330 0.052235 0.028447
				CHANNELS 3 Zrotation Yrotation Xrotation
				JOINT neck
				{
					OFFSET -0.012164 0.165167 -0.031615
					CHANNELS 3 Zrotation Yrotation Xrotation
					JOINT head
					{
						OFFSET 0.024783 0.160452 0.020737
						CHANNELS 3 Zrotation Yrotation Xrotation
						End Site
						{
							OFFSET 0.000000 0.000000 0.000000
						}
					}
				}
				JOINT left_collar
				{
					OFFSET 0.046364 0.084944 -0.007220
					CHANNELS 3 Zrotation Yrotation Xrotation
					JOINT left_shoulder
					{
						OFFSET 0.119239 0.057728 -0.015461
						CHANNELS 3 Zrotation Yrotation Xrotation
						JOINT left_elbow
						{
							OFFSET 0.254123 -0.072151 -0.042459
							CHANNELS 3 Zrotation Yrotation Xrotation
							JOINT left_wrist
							{
								OFFSET 0.251987 0.023221 -0.002472
								CHANNELS 3 Zrotation Yrotation Xrotation
								JOINT left_index_1
								{
									OFFSET 0.101902 -0.008688 0.019351
									CHANNELS 3 Zrotation Yrotation Xrotation
									JOINT left_index_2
									{
										OFFSET 0.030149 -0.011154 0.001151
										CHANNELS 3 Zrotation Yrotation Xrotation
										JOINT left_index_3
										{
											OFFSET 0.006504 -0.021577 -0.002433
											CHANNELS 3 Zrotation Yrotation Xrotation
											End Site
											{
												OFFSET 0.000000 0.000000 0.000000
											}
										}
									}
								}
								JOINT left_middle_1
								{
									OFFSET 0.109398 -0.006328 -0.003981
									CHANNELS 3 Zrotation Yrotation Xrotation
									JOINT left_middle_2
									{
										OFFSET 0.026472 -0.015218 -0.004641
										CHANNELS 3 Zrotation Yrotation Xrotation
										JOINT left_middle_3
										{
											OFFSET 0.005022 -0.023347 -0.001911
											CHANNELS 3 Zrotation Yrotation Xrotation
											End Site
											{
												OFFSET 0.000000 0.000000 0.000000
											}
										}
									}
								}
								JOINT left_pinky_1
								{
									OFFSET 0.084047 -0.014539 -0.043750
									CHANNELS 3 Zrotation Yrotation Xrotation
									JOINT left_pinky_2
									{
										OFFSET 0.012124 -0.014448 -0.005375
										CHANNELS 3 Zrotation Yrotation Xrotation
										JOINT left_pinky_3
										{
											OFFSET 0.003798 -0.018853 0.000167
											CHANNELS 3 Zrotation Yrotation Xrotation
											End Site
											{
												OFFSET 0.000000 0.000000 0.000000
											}
										}
									}
								}
								JOINT left_ring_1
								{
									OFFSET 0.097444 -0.009268 -0.027345
									CHANNELS 3 Zrotation Yrotation Xrotation
									JOINT left_ring_2
									{
										OFFSET 0.023561 -0.016057 -0.001895
										CHANNELS 3 Zrotation Yrotation Xrotation
										JOINT left_ring_3
										{
											OFFSET 0.004257 -0.023548 0.000814
											CHANNELS 3 Zrotation Yrotation Xrotation
											End Site
											{
												OFFSET 0.000000 0.000000 0.000000
											}
										}
									}
								}
								JOINT left_thumb_1
								{
									OFFSET 0.040636 -0.017977 0.025611
									CHANNELS 3 Zrotation Yrotation Xrotation
									JOINT left_thumb_2
									{
										OFFSET 0.021637 -0.017639 0.011623
										CHANNELS 3 Zrotation Yrotation Xrotation
										JOINT left_thumb_3
										{
											OFFSET 0.024002 -0.008356 0.006548
											CHANNELS 3 Zrotation Yrotation Xrotation
											End Site
											{
												OFFSET 0.000000 0.000000 0.000000
											}
										}
									}
								}
							}
						}
					}
				}
				JOINT right_collar
				{
					OFFSET -0.047695 0.084339 -0.013400
					CHANNELS 3 Zrotation Yrotation Xrotation
					JOINT right_shoulder
					{
						OFFSET -0.102578 0.053524 -0.012669
						CHANNELS 3 Zrotation Yrotation Xrotation
						JOINT right_elbow
						{
							OFFSET -0.271150 -0.036492 -0.026467
							CHANNELS 3 Zrotation Yrotation Xrotation
							JOINT right_wrist
							{
								OFFSET -0.249267 -0.004533 -0.015325
								CHANNELS 3 Zrotation Yrotation Xrotation
								JOINT right_index_1
								{
									OFFSET -0.099881 -0.011783 0.019600
									CHANNELS 3 Zrotation Yrotation Xrotation
									JOINT right_index_2
									{
										OFFSET -0.030148 -0.011154 0.001151
										CHANNELS 3 Zrotation Yrotation Xrotation
										JOINT right_index_3
										{
											OFFSET -0.006505 -0.021577 -0.002432
											CHANNELS 3 Zrotation Yrotation Xrotation
											End Site
											{
												OFFSET 0.000000 0.000000 0.000000
											}
										}
									}
								}
								JOINT right_middle_1
								{
									OFFSET -0.107376 -0.009422 -0.003734
									CHANNELS 3 Zrotation Yrotation Xrotation
									JOINT right_middle_2
									{
										OFFSET -0.026472 -0.015218 -0.004641
										CHANNELS 3 Zrotation Yrotation Xrotation
										JOINT right_middle_3
										{
											OFFSET -0.005022 -0.023347 -0.001911
											CHANNELS 3 Zrotation Yrotation Xrotation
											End Site
											{
												OFFSET 0.000000 0.000000 0.000000
											}
										}
									}
								}
								JOINT right_pinky_1
								{
									OFFSET -0.082027 -0.017634 -0.043503
									CHANNELS 3 Zrotation Yrotation Xrotation
									JOINT right_pinky_2
									{
										OFFSET -0.012123 -0.014448 -0.005374
										CHANNELS 3 Zrotation Yrotation Xrotation
										JOINT right_pinky_3
										{
											OFFSET -0.003798 -0.018852 0.000167
											CHANNELS 3 Zrotation Yrotation Xrotation
											End Site
											{
												OFFSET 0.000000 0.000000 0.000000
											}
										}
									}
								}
								JOINT right_ring_1
								{
									OFFSET -0.095423 -0.012362 -0.027099
									CHANNELS 3 Zrotation Yrotation Xrotation
									JOINT right_ring_2
									{
										OFFSET -0.023561 -0.016057 -0.001895
										CHANNELS 3 Zrotation Yrotation Xrotation
										JOINT right_ring_3
										{
											OFFSET -0.004257 -0.023548 0.000816
											CHANNELS 3 Zrotation Yrotation Xrotation
											End Site
											{
												OFFSET 0.000000 0.000000 0.000000
											}
										}
									}
								}
								JOINT right_thumb_1
								{
									OFFSET -0.038613 -0.021074 0.025861
									CHANNELS 3 Zrotation Yrotation Xrotation
									JOINT right_thumb_2
									{
										OFFSET -0.021636 -0.017639 0.011623
										CHANNELS 3 Zrotation Yrotation Xrotation
										JOINT right_thumb_3
										{
											OFFSET -0.024004 -0.008353 0.006547
											CHANNELS 3 Zrotation Yrotation Xrotation
											End Site
											{
												OFFSET 0.000000 0.000000 0.000000
											}
										}
									}
								}
							}
						}
					}
				}
			}
		}
	}
}
MOTION
Frames: 7
Frame Time: 0.050000
-0.002093 0.944163 0.004547 -0.059903 1.508460 0.251687 3.133764 -0.624329 -4.573275 -0.346540 -0.597603 5.871792 3.131680 2.777862 -4.636184 0.000000 0.000000 0.000000 -1.467551 0.175321 -1.020287 7.367444 -0.364413 -1.092747 -7.111580 -13.679267 -0.916431 0.000000 0.000000 0.000000 3.292204 -0.160243 3.129217 -8.976016 -2.101169 -24.314592 10.003170 0.009599 29.603185 2.360429 3.133830 -21.745639 0.000000 0.000000 0.000000 12.758933 0.652655 1.013074 -88.013239 -19.129636 -5.586927 -15.484392 -2.649939 0.388651 -1.558878 2.555955 13.357436 -7.592136 5.104570 2.006026 -6.472164 3.022123 3.260690 0.000000 0.000000 0.000000 -2.373050 6.848984 3.265335 -11.238760 1.080474 -2.578843 0.000000 0.000000 0.000000 -7.662660 9.784103 2.863393 -7.645285 -0.410162 -17.222184 0.000000 0.000000 0.000000 -6.442159 7.332641 3.161049 -8.052531 -1.005738 -8.407373 0.000000 0.000000 0.000000 -6.655092 -2.520880 0.560758 18.810032 8.882334 -2.665032 0.000000 0.000000 0.000000 -9.100463 0.359965 0.739880 80.478642 17.106864 2.192923 10.073679 8.260161 -0.037788 3.165531 -3.646851 2.690511 2.534153 -0.386802 0.209248 2.509551 -2.770888 7.282150 0.000000 0.000000 0.000000 1.884225 -3.119003 1.457298 -4.331191 1.223735 -4.727242 0.000000 0.000000 0.000000 -0.294039 -4.467879 5.816929 -5.015848 1.086383 -5.932328 0.000000 0.000000 0.000000 3.000116 -2.908995 1.731666 -6.111792 -0.446551 1.246273 0.000000 0.000000 0.000000 4.904135 3.301955 0.132698 -14.245429 -7.682437 -0.145710 0.000000 0.000000 0.000000 
-0.002447 0.946420 -0.002052 0.655976 1.845763 0.687193 1.647041 -1.232746 -8.991986 1.395140 -1.558549 11.720183 3.867060 2.596228 -6.807247 0.000000 0.000000 0.000000 -2.138618 0.337129 -2.388079 7.155042 -0.381760 -0.282621 -6.454560 -11.823830 -2.597614 0.000000 0.000000 0.000000 1.065299 -0.251937 3.851668 -8.377356 -2.411071 -24.888777 10.653201 -0.055323 29.091230 2.083235 3.752495 -25.878404 0.000000 0.000000 0.000000 14.168100 0.752864 1.151864 -91.225334 -21.558794 -4.077451 -12.610521 -1.170042 0.031342 1.097612 2.465910 12.969168 -4.225651 2.293218 1.009905 -11.798683 0.089736 -4.143556 0.000000 0.000000 0.000000 -4.569009 -1.255729 -1.459386 -4.701757 -0.066224 -3.060380 0.000000 0.000000 0.000000 -22.302442 -7.112617 -14.461888 19.282448 -1.309750 14.517637 0.000000 0.000000 0.000000 -11.063892 -3.123503 -2.602152 1.843281 0.065469 1.440837 0.000000 0.000000 0.000000 -16.256884 -9.155948 -0.272622 24.709051 10.272278 -3.231837 0.000000 0.000000 0.000000 -10.135225 0.998658 1.043205 81.319153 16.621164 2.164516 10.212428 8.937426 0.014974 3.051907 -5.197930 -2.325100 -0.749560 5.114734 -1.810424 -1.635099 -1.528617 6.565766 0.000000 0.000000 0.000000 -3.066450 -0.209896 0.719596 -6.056398 0.198460 0.434044 0.000000 0.000000 0.000000 -2.133270 -7.074304 11.147907 -12.567652 1.721699 -7.983651 0.000000 0.000000 0.000000 -2.673989 -4.697883 3.953301 -6.657862 0.254963 -3.497332 0.000000 0.000000 0.000000 5.466041 12.131538 -4.459950 -13.757482 -20.801649 8.930894 0.000000 0.000000 0.000000 
0.000144 0.943035 0.003227 1.009291 0.636550 -0.526189 1.735523 -1.050611 -7.740388 1.248404 -1.670361 12.936530 3.819632 2.205328 -7.316511 0.000000 0.000000 0.000000 -2.103156 0.220254 -1.247161 6.093592 -0.321705 0.621147 -4.842137 -7.685438 -4.172487 0.000000 0.000000 0.000000 1.057909 -0.486252 6.763663 -9.012439 -2.588743 -26.038155 10.362605 0.202297 30.021402 1.955403 3.793140 -26.049672 0.000000 0.000000 0.000000 14.437234 -0.549541 1.536653 -91.289158 -21.819124 -3.591190 -11.344242 -5.215781 0.845172 -1.734444 5.942199 13.352081 1.274498 6.775294 3.314171 -37.884332 5.914505 -4.647395 0.000000 0.000000 0.000000 -10.407391 12.572743 4.014473 -4.274017 -6.687732 -27.875762 0.000000 0.000000 0.000000 -47.761060 9.429882 -18.505311 51.785904 21.063064 -20.963365 0.000000 0.000000 0.000000 -19.715906 0.622816 -1.844003 1.595788 -0.404836 -10.633639 0.000000 0.000000 0.000000 -23.998577 -14.219178 -0.800636 44.364875 18.417580 -2.842643 0.000000 0.000000 0.000000 -10.619529 0.959645 1.090503 83.884386 17.556129 2.770521 8.182469 9.183450 0.002939 1.145448 -2.908174 -0.504227 0.537884 -1.380515 0.496003 0.246019 -0.935478 3.292788 0.000000 0.000000 0.000000 -1.766321 0.134811 0.239526 -2.634398 -1.007800 5.685531 0.000000 0.000000 0.000000 -1.768384 -1.455147 2.792055 -0.245504 0.747870 -2.715158 0.000000 0.000000 0.000000 1.099878 -3.471150 2.397767 -6.402096 0.090469 -2.639500 0.000000 0.000000 0.000000 6.826599 8.415901 -1.689168 -16.290109 -12.937264 3.311666 0.000000 0.000000 0.000000 
-0.000798 0.939973 -0.003372 1.113035 0.056449 0.230418 3.016483 -1.014004 -7.929572 -0.569864 -1.092858 10.931435 3.683397 1.459482 -7.918310 0.000000 0.000000 0.000000 -1.893118 0.198212 -1.055946 5.630804 -0.253446 -2.070338 -3.255325 -5.380518 -2.150897 0.000000 0.000000 0.000000 1.752232 -0.429291 5.904382 -9.022355 -2.598727 -25.972097 10.264506 -0.138735 29.804048 1.299931 3.577131 -24.604836 0.000000 0.000000 0.000000 13.843557 0.322433 1.096787 -92.637562 -21.469404 -3.259978 -8.804043 -3.997773 0.539457 -1.385715 4.655258 11.723016 4.038835 7.308852 3.502397 -37.645356 1.218057 -8.158958 0.000000 0.000000 0.000000 -4.927067 4.773094 1.655415 -15.064055 1.287652 -4.291135 0.000000 0.000000 0.000000 -37.556842 14.516722 -9.730183 40.780062 13.934369 -21.096250 0.000000 0.000000 0.000000 -12.874105 1.123673 -0.707448 -8.203078 0.560607 2.747389 0.000000 0.000000 0.000000 -14.818935 -10.494982 -1.827497 28.967490 14.560375 -1.881332 0.000000 0.000000 0.000000 -11.352512 0.649333 1.090954 84.622218 17.882950 2.690138 7.650996 9.496108 0.011648 0.493066 -1.942647 0.373835 2.599850 1.837312 -0.511198 -4.347616 -0.919757 5.454987 0.000000 0.000000 0.000000 0.342681 -3.107663 1.738613 -5.850393 0.536500 -1.049459 0.000000 0.000000 0.000000 -1.939136 -3.999711 6.213840 3.446254 -0.248339 0.798169 0.000000 0.000000 0.000000 0.275478 -2.643524 1.857878 -0.936269 -0.799399 3.780315 0.000000 0.000000 0.000000 4.229913 9.091062 -3.970102 -6.842352 -8.985725 2.226034 0.000000 0.000000 0.000000 
-0.002211 0.938361 -0.003372 1.069506 -1.355803 1.246547 3.178999 -1.115656 -9.011907 -1.041359 -0.990760 10.979715 3.876643 2.224548 -7.800089 0.000000 0.000000 0.000000 -2.444076 0.402315 -2.774587 6.755334 -0.276335 -1.285757 -1.340033 -2.181162 -0.840233 0.000000 0.000000 0.000000 2.001123 -0.377181 5.117464 -9.024583 -2.899245 -26.833405 10.283188 -0.536863 30.413989 1.230699 3.668525 -24.947288 0.000000 0.000000 0.000000 14.714463 0.116771 1.050067 -93.310568 -21.764202 -2.209825 -9.340706 -2.268395 0.231284 0.051666 3.252384 8.299704 1.220145 -2.397857 -1.140344 -19.617416 9.959723 10.649725 0.000000 0.000000 0.000000 -1.147356 1.724380 0.766053 -9.372181 1.739718 1.645148 0.000000 0.000000 0.000000 -23.647149 12.621938 -1.248455 30.509778 4.289316 -13.562978 0.000000 0.000000 0.000000 -8.768382 -0.551956 -1.076269 1.349868 0.883486 7.750298 0.000000 0.000000 0.000000 -13.383013 -7.977332 0.198068 27.043071 9.118851 -3.842961 0.000000 0.000000 0.000000 -11.621173 1.556739 1.608588 84.495385 17.486270 1.574547 8.038903 11.135588 0.131074 0.158535 -4.097931 3.574504 1.859297 4.127695 -1.400050 -3.939351 -2.097888 9.442601 0.000000 0.000000 0.000000 -3.351718 2.387095 -0.874559 -5.043368 0.114445 1.508296 0.000000 0.000000 0.000000 -4.989477 -1.630896 4.611846 -0.262118 0.787905 -3.610624 0.000000 0.000000 0.000000 -1.789669 -1.172662 1.003921 -7.819252 -0.250432 -0.468280 0.000000 0.000000 0.000000 6.736558 10.574849 -3.920056 -12.673676 -11.057795 1.835472 0.000000 0.000000 0.000000 
-0.002682 0.938684 -0.004692 0.796339 -1.807850 1.075325 3.451089 -0.948638 -7.731888 -2.258873 -0.702600 10.296564 4.215516 3.384469 -7.423160 0.000000 0.000000 0.000000 -2.258960 0.373425 -2.517918 6.992856 -0.267017 -1.604783 -1.021700 -1.749566 -0.491626 0.000000 0.000000 0.000000 2.702264 -0.410725 5.412225 -9.027787 -2.906555 -26.782104 10.169417 -0.197123 30.285954 1.216001 3.510200 -23.954664 0.000000 0.000000 0.000000 13.908892 0.247720 0.938472 -91.886821 -22.785833 -1.717064 -10.211475 -1.351591 0.062170 -0.199282 2.713684 9.049191 2.092731 1.714336 0.657128 -14.866266 4.332536 3.171851 0.000000 0.000000 0.000000 -2.645282 1.103047 0.138372 1.433282 -1.265069 -5.691233 0.000000 0.000000 0.000000 -25.021362 4.357297 -7.686928 38.764320 4.624384 -5.062840 0.000000 0.000000 0.000000 -7.839008 -1.372778 -1.447217 7.434312 0.021190 -0.978155 0.000000 0.000000 0.000000 -9.672348 -7.491670 -1.394636 18.181004 6.470312 -2.848949 0.000000 0.000000 0.000000 -11.453338 -0.057985 0.957659 85.656583 18.111647 2.109038 6.753902 7.846655 -0.081651 0.173287 -2.229900 3.482472 2.524358 2.308476 -0.710836 -1.997054 -2.215764 8.541585 0.000000 0.000000 0.000000 -1.621019 -2.476621 1.768334 -3.246477 0.369215 -0.644830 0.000000 0.000000 0.000000 -6.514728 -3.051185 7.249428 5.424376 -0.435252 1.856395 0.000000 0.000000 0.000000 -2.186238 -2.659168 2.096834 -1.509258 -0.867076 4.683861 0.000000 0.000000 0.000000 5.981220 9.567166 -3.707234 -12.017555 -13.222413 3.005936 0.000000 0.000000 0.000000 
-0.005273 0.937878 -0.002052 0.757397 -1.623824 0.813662 3.179194 -0.873342 -6.949893 -2.432154 -0.594691 9.339963 4.032755 3.211458 -7.066634 0.000000 0.000000 0.000000 -2.138888 0.327622 -2.125791 7.190405 -0.281785 -1.420958 -1.223541 -1.839804 -0.991022 0.000000 0.000000 0.000000 2.857764 -0.408378 5.410325 -8.935317 -2.878359 -26.613908 10.500540 0.859021 30.160541 2.227436 3.380128 -23.164214 0.000000 0.000000 0.000000 14.362613 -1.121708 1.590372 -92.105740 -24.415194 -1.305302 -11.212539 -0.944186 -0.016098 2.418738 2.572761 8.694965 -0.448992 -2.025802 -0.782039 -5.674802 2.299500 3.653698 0.000000 0.000000 0.000000 -2.875336 -0.139458 -0.570456 1.429253 -0.892552 -3.641486 0.000000 0.000000 0.000000 -15.921010 -0.200987 -7.021142 21.208540 1.077944 1.626985 0.000000 0.000000 0.000000 -4.599999 -7.363081 -4.676478 0.204604 1.339613 11.573953 0.000000 0.000000 0.000000 -12.478588 -10.119767 -1.577241 18.142657 10.841657 -0.353683 0.000000 0.000000 0.000000 -11.384187 -0.180597 0.784167 85.031673 16.648454 1.662824 7.067116 8.168665 -0.068011 1.280116 -2.849719 4.352114 3.267425 0.373236 -0.032445 0.980355 -2.405110 6.884096 0.000000 0.000000 0.000000 -1.827237 -1.123499 1.016585 -0.747957 0.490119 -2.080076 0.000000 0.000000 0.000000 -4.726385 -3.908322 7.408961 0.578820 1.739887 -8.173341 0.000000 0.000000 0.000000 -2.897846 -1.536438 1.393658 4.029106 -0.504552 2.826996 0.000000 0.000000 0.000000 8.245297 6.988854 -0.843497 -18.043482 -10.624009 0.315645 0.000000 0.000000 0.000000 
